<svg width="1920" height="1014" viewBox="0 0 1920 1014" fill="none" xmlns="http://www.w3.org/2000/svg">
<rect width="1920" height="1014" fill="#35AAEA"/>
<rect y="927" width="1920" height="87" fill="#B6DC78"/>
<rect x="740" y="596" width="440" height="330" fill="#FFE144" stroke="#545454" stroke-width="2"/>
<rect x="783" y="644" width="28" height="30" fill="#35AAEA" stroke="#545454" stroke-width="2"/>
<rect x="857" y="644" width="28" height="30" fill="#35AAEA" stroke="#545454" stroke-width="2"/>
<rect x="783" y="715" width="28" height="30" fill="#35AAEA" stroke="#545454" stroke-width="2"/>
<rect x="857" y="715" width="28" height="30" fill="#35AAEA" stroke="#545454" stroke-width="2"/>
<rect x="783" y="786" width="28" height="30" fill="#35AAEA" stroke="#545454" stroke-width="2"/>
<rect x="857" y="786" width="28" height="30" fill="#35AAEA" stroke="#545454" stroke-width="2"/>
<rect x="783" y="857" width="28" height="30" fill="#35AAEA" stroke="#545454" stroke-width="2"/>
<rect x="857" y="857" width="28" height="30" fill="#35AAEA" stroke="#545454" stroke-width="2"/>
<rect x="1040" y="644" width="28" height="30" fill="#35AAEA" stroke="#545454" stroke-width="2"/>
<rect x="1114" y="644" width="28" height="30" fill="#35AAEA" stroke="#545454" stroke-width="2"/>
<rect x="1040" y="715" width="28" height="30" fill="#35AAEA" stroke="#545454" stroke-width="2"/>
<rect x="1114" y="715" width="28" height="30" fill="#35AAEA" stroke="#545454" stroke-width="2"/>
<rect x="1040" y="786" width="28" height="30" fill="#35AAEA" stroke="#545454" stroke-width="2"/>
<rect x="1114" y="786" width="28" height="30" fill="#35AAEA" stroke="#545454" stroke-width="2"/>
<rect x="1040" y="857" width="28" height="30" fill="#35AAEA" stroke="#545454" stroke-width="2"/>
<rect x="1114" y="857" width="28" height="30" fill="#35AAEA" stroke="#545454" stroke-width="2"/>
<rect x="923" y="851" width="75" height="75" fill="#C6430C" stroke="#545454" stroke-width="2"/>
<line x1="961" y1="850" x2="961" y2="927" stroke="#545454" stroke-width="2"/>
<rect x="941" y="864" width="14" height="41" fill="#35AAEA" stroke="#545454" stroke-width="2"/>
<rect x="967" y="864" width="14" height="41" fill="#35AAEA" stroke="#545454" stroke-width="2"/>
<line y1="926" x2="1920" y2="926" stroke="#545454" stroke-width="2"/>
</svg>
